<svg xmlns="http://www.w3.org/2000/svg" viewBox="0 0 283.33 89.24"><defs><style>.cls-1{fill:#00a9ea;}.cls-2{fill:#231f20;}.cls-3{fill:#fff;}</style></defs><g id="Layer_2" data-name="Layer 2"><g id="Layer_1-2" data-name="Layer 1"><g id="Group_2761" data-name="Group 2761"><path id="Path_5232" data-name="Path 5232" class="cls-1" d="M48.89,27.29c1.39.21,1.67-.07,1.85-1.38a31.85,31.85,0,0,1,2.69-8.84A27.14,27.14,0,0,1,62.17,6.49,43.41,43.41,0,0,1,75.45.76,32.42,32.42,0,0,1,85.12.11C91,.64,94.18,2.31,95.8,4.46a4.79,4.79,0,0,1,.94,2.44,5,5,0,0,1-2,3.84,28.69,28.69,0,0,1-9,4.46c-4.51,1.51-10.68,3.1-16.84,4.52a96.55,96.55,0,0,0-10.53,3C54.3,24.13,53,28,55.61,29.43a49.13,49.13,0,0,1,7.91,5.25A70.37,70.37,0,0,1,74.09,45c3.83,4.69,10.09,13.63,12.34,22.32,2.5,9.53.94,18.56-4.44,21.09s-12.31-1.1-17.24-6.23A49.82,49.82,0,0,1,53.69,62.77a85.82,85.82,0,0,1-3.75-24.39c0-1.92,0-2.33.05-4.06.13-2.37-5.52-1.77-8.26,0A70.23,70.23,0,0,0,29,46.78c-1.25,1.47-2.94,3.64-4.75,5.91a44.32,44.32,0,0,1-7.37,7.81c-3.59,2.62-9.36,3.71-13.4.82A9.63,9.63,0,0,1,0,53.59a11.66,11.66,0,0,1,1.58-6.08,29.69,29.69,0,0,1,7.12-7.87A63.29,63.29,0,0,1,24,30.88,49,49,0,0,1,48.9,27.31"></path><g id="Group_2760" data-name="Group 2760"><path id="Path_5233" data-name="Path 5233" class="cls-2" d="M117.16,30.86c-5.39,0-8.13,2.78-8.13,8.07v6.79c0,5.14,3.19,8.17,8.58,8.17A13,13,0,0,0,125.14,52c.28-.17,0-.7-.21-1.06s-.49-.9-.73-.78a12.94,12.94,0,0,1-6.68,1.76,5.84,5.84,0,0,1-6.29-5.35,5.9,5.9,0,0,1,0-1V43.43H125.5V38.81c0-5.26-2.94-8-8.34-8m6.14,10.58H111.23V39.18c0-4.65,2.79-6.32,5.93-6.32a5.7,5.7,0,0,1,6.15,5.22,5.77,5.77,0,0,1,0,1.1Zm59.86-10.58c-5.4,0-8.5,2.66-8.5,8v7.1c0,5.32,3.1,8,8.5,8s8.55-2.7,8.55-8v-7.1c0-5.26-3.12-8-8.55-8m6.37,14.7a5.89,5.89,0,0,1-5.34,6.39,5.79,5.79,0,0,1-1,0,5.86,5.86,0,0,1-6.31-5.38,5.57,5.57,0,0,1,0-1V39.19a5.83,5.83,0,0,1,5.28-6.32,7.11,7.11,0,0,1,7.4,5.31,5.68,5.68,0,0,1,0,1ZM102.21,32.86V50.22c0,.65,0,1.88,1.63,1.88h3.43c.24,0,.24.49.24.89s0,.9-.24.9h-3.88c-2.66,0-3.4-1.59-3.4-3.92V32.86H97c-.29,0-.29-.53-.29-.93s0-1.07.29-1.07h3V25.29c0-.24.66-.24,1.11-.24s1.11,0,1.11.24v5.57h5.1c.25,0,.25.58.25,1.07s0,.93-.25.93ZM134.45,53c0,.41,0,.9-.24.9h-1.88c-2.66,0-3.39-1.6-3.39-3.92V25.37c0-.24.69-.24,1.1-.24s1.1,0,1.1.24V50.21c0,.65,0,1.88,1.63,1.88h1.44c.24,0,.24.49.24.89m36.86-15.32v16c0,.24-.69.24-1.1.24s-1.11,0-1.11-.24V38.81c0-4.61-1.71-6-4.9-6S158,37.79,158,37.79V53.64c0,.24-.69.24-1.1.24s-1.11,0-1.11-.24V31.11c0-.25.7-.25,1.11-.25s1.05,0,1.05.25v4.16a8.45,8.45,0,0,1,6.82-4.41,6.14,6.14,0,0,1,6.6,5.65,5.61,5.61,0,0,1,0,1.16M204.21,32c0,.43,0,1.19-.25,1.19a4.88,4.88,0,0,0-5,2.37c-1,1.21-2,2.69-2,2.69V53.65c0,.24-.69.24-1.1.24s-1.06,0-1.06-.24V31.11c0-.25.69-.25,1.1-.25s1.06,0,1.06.25V36l1.55-2.21c1.59-2.16,2.62-2.9,4.58-2.9H204c.25,0,.25.78.25,1.19M144,30.85c-5.39,0-8.12,2.78-8.12,8.08v6.78c0,5.15,3.18,8.17,8.57,8.17A13,13,0,0,0,152,52c.29-.17,0-.7-.19-1.07s-.5-.9-.75-.77a12.91,12.91,0,0,1-6.7,1.75A5.83,5.83,0,0,1,138,46.58a6,6,0,0,1,0-1V43.43h14.3V38.81c0-5.26-2.94-8-8.38-8m6.17,10.57H138V39.18c0-4.65,2.77-6.32,5.92-6.32a5.72,5.72,0,0,1,6.18,5.21,5.88,5.88,0,0,1,0,1.11Z"></path><g id="Group_2759" data-name="Group 2759"><path id="Path_5234" data-name="Path 5234" class="cls-1" d="M226.88,64.65a5,5,0,0,1-3.94-1.89,5.1,5.1,0,0,1-.92-4.3l8.13-35.52a11,11,0,0,1,10.62-8.54h37.66a4.85,4.85,0,0,1,3.86,1.85,5,5,0,0,1,.91,4.2L275.06,56a11.12,11.12,0,0,1-10.73,8.62Z"></path><path id="Path_5235" data-name="Path 5235" class="cls-3" d="M276.09,25.73a1.44,1.44,0,0,0-1.31-.63H266a16.34,16.34,0,0,0-4,.5,15,15,0,0,0-3.86,1.54,12.29,12.29,0,0,0-3.2,2.63,9.48,9.48,0,0,0-2,3.86L250.3,44h-3l4.84-16.37a1.78,1.78,0,0,0-.18-1.7,2.17,2.17,0,0,0-1.38-.74,3.93,3.93,0,0,0-1.86.17,3.39,3.39,0,0,0-1.59,1l-17,18.43a3.12,3.12,0,0,0-.71,1.17,2.67,2.67,0,0,0-.15,1.22,1.48,1.48,0,0,0,1.59,1.34h10L240,51.32a1.94,1.94,0,0,0,.21,1.79,1.79,1.79,0,0,0,1.57.74,3.23,3.23,0,0,0,2-.74,3.45,3.45,0,0,0,1.28-1.79l.82-2.83h3.89a2.7,2.7,0,0,0,0,.28,5.38,5.38,0,0,0,1.6,2.71,8.28,8.28,0,0,0,3.18,1.75,22.88,22.88,0,0,0,5.59.63,15.49,15.49,0,0,0,3.89-.5,13.13,13.13,0,0,0,3.69-1.59A13.37,13.37,0,0,0,271,49a13.82,13.82,0,0,0,2.11-4.2c.26-1.15.92-3.77,1-4.12s.17-.67.22-1,.18-.68.27-1a1.92,1.92,0,0,0-.32-1.61,1.73,1.73,0,0,0-1.45-.65h-9.2a2.6,2.6,0,0,0-1.71.63,2.92,2.92,0,0,0-1,1.57,2.4,2.4,0,0,0,.25,1.74,1.51,1.51,0,0,0,1.4.85h6.1l-.83,3.26a7,7,0,0,1-1.05,2.35,6,6,0,0,1-1.66,1.56,6.65,6.65,0,0,1-2.16.86,12.23,12.23,0,0,1-2.56.27,6.46,6.46,0,0,1-4.22-1.13c-.89-.75-1.1-2.07-.63-4,.7-2.83,3-11.42,3.36-12a5.39,5.39,0,0,1,1.37-1.56,6.79,6.79,0,0,1,2.09-1,11,11,0,0,1,3-.43h8.45a2.76,2.76,0,0,0,1.62-.65,2.56,2.56,0,0,0,.95-1.51,1.88,1.88,0,0,0-.21-1.53M242.24,44H236l9.18-10.09Z"></path></g></g></g></g></g></svg>