<svg xmlns="http://www.w3.org/2000/svg" viewBox="0 0 245.16 54.73"><defs><style>.cls-1{fill:#e0813c;}.cls-2{fill:#9bb251;}.cls-3{fill:#fff;}</style></defs><g id="Layer_2" data-name="Layer 2"><g id="Layer_1-2" data-name="Layer 1"><g id="Group_2768" data-name="Group 2768"><rect id="Rectangle_572" data-name="Rectangle 572" class="cls-1" x="187.41" y="0.18" width="57.75" height="54.55" rx="12.18"></rect><g id="Group_2766" data-name="Group 2766"><g id="Group_2765" data-name="Group 2765"><g id="Group_2764" data-name="Group 2764"><path id="Path_5251" data-name="Path 5251" class="cls-1" d="M44.51,20.51A46.24,46.24,0,0,1,46,13.74a26.54,26.54,0,0,1,3.07-6.37A17.55,17.55,0,0,1,54.32,2a13.18,13.18,0,0,1,7.39-2A26.78,26.78,0,0,1,65.6.36a14.58,14.58,0,0,0-.24,2.28c-.07,1-.09,1.81-.09,2.29V6.45l-.08,3.21L64.13,10c-1.3-.58-2.52-1.06-3.68-1.48A11.17,11.17,0,0,0,57,8c-1.21,0-2.11,0-2.73.11a2.61,2.61,0,0,0-1.46.58c-.35.32-.64.59-.89.84a1.27,1.27,0,0,0-.37.94,8.68,8.68,0,0,0,.64,2.75c.43,1.17,1.41,3.44,2.94,6.83v.5l.28,3.69V44.53l.35,10.19H43.84A32.92,32.92,0,0,0,44.13,51c0-1.53.06-2.94.06-4.24l.28-15.47V24.21Z"></path><path id="Path_5252" data-name="Path 5252" class="cls-1" d="M90.92,18.76S62.18,1.14,27,38.81l.18,8.81S54.46,5.18,90.92,18.76"></path><path id="Path_5253" data-name="Path 5253" class="cls-1" d="M59.05,41.88A22.84,22.84,0,0,1,57.43,34,15.77,15.77,0,0,1,59,26.84a17.83,17.83,0,0,1,5.13-6.12,22.34,22.34,0,0,1,7.26-3.88A30.1,30.1,0,0,1,80,15.53a17.66,17.66,0,0,1,7.91,1.59,19,19,0,0,1,6,4.59,20.91,20.91,0,0,1,4,6.48,18.68,18.68,0,0,1-.07,15.3q-3.3,6.9-12.56,9.74a22.86,22.86,0,0,1-16.07-.3,18.67,18.67,0,0,1-10.18-11m10.11-9.47L70.94,38a35,35,0,0,0,5.32,9.51A6.73,6.73,0,0,0,84,50.05a5.13,5.13,0,0,0,3.79-3.34,11.9,11.9,0,0,0,.48-5,36.89,36.89,0,0,0-1.18-5.88C86.52,33.68,86,32,85.51,30.7c-.22-.57-.51-1.21-.85-1.92s-.62-1.23-.81-1.6a15,15,0,0,0-4.24-6,6.53,6.53,0,0,0-6.55-1.41,5.82,5.82,0,0,0-4.35,4.87,17.8,17.8,0,0,0,.45,7.75"></path><path id="Path_5254" data-name="Path 5254" class="cls-1" d="M100.5,16.64l6.31-.45,5.54.69-.25,5.54A20.76,20.76,0,0,1,118,17.61,14.76,14.76,0,0,1,125,15.84a12.9,12.9,0,0,1,9.4,3.13,11.41,11.41,0,0,1,3.63,5.53,42.28,42.28,0,0,1,.42,6.75V53.19H125.9l.39-4,.48-8.8v-5.7a30,30,0,0,0-1.06-9c-.73-2.18-2.7-3.26-6-3.26-3.44,0-5.53,1.23-6.3,3.72a34.52,34.52,0,0,0-1.16,10l.48,17.1H100.5c0-.68,0-1.33.07-2s.08-1.32.13-2V39.68L101,31V28l-.48-9.78Z"></path><path id="Path_5255" data-name="Path 5255" class="cls-1" d="M152.37,35l.35,4.34a8.49,8.49,0,0,0,1.27,4,11.17,11.17,0,0,0,2.87,3.54,9.74,9.74,0,0,0,3.4,1.75,14.84,14.84,0,0,0,4.14.53,15.1,15.1,0,0,0,5.19-.92,19.06,19.06,0,0,0,4.78-2.53l1,.69L173.5,50.7a22.38,22.38,0,0,1-12.18,3.43A31,31,0,0,1,152,52.91a17.14,17.14,0,0,1-6.88-4.22A16,16,0,0,1,141,42.05a27.38,27.38,0,0,1-1.12-7.95,17.86,17.86,0,0,1,5.24-13.29,19.58,19.58,0,0,1,14.3-5.15q9.38,0,13.42,5.19t4,14.17Zm13.24-3.64a3.47,3.47,0,0,1-.09-.91v-.84a20.49,20.49,0,0,0-1.3-7.18A4.66,4.66,0,0,0,159.59,19a5.69,5.69,0,0,0-5.68,4,23.34,23.34,0,0,0-1.53,8.47Z"></path><path id="Path_5256" data-name="Path 5256" class="cls-2" d="M26.28,47.57a31.06,31.06,0,0,1-5.94,4.84,13.63,13.63,0,0,1-6.78,1.46,18.11,18.11,0,0,1-6.48-1.11,10.13,10.13,0,0,1-4.55-3.12A10.27,10.27,0,0,1,.47,45.22a25.43,25.43,0,0,1-.47-5V16.64l6.8-.45h5.76q-.53,4.43-.7,10.08c-.12,3.77-.17,7.38-.17,10.84,0,1.64,0,2.93.13,3.84a6.23,6.23,0,0,0,.81,2.59,6.7,6.7,0,0,0,2.34,3,6.25,6.25,0,0,0,3.71,1.05q5,0,6.21-3.89a34.45,34.45,0,0,0,1.19-9.85l-.47-17.19,6.08-.45h6.08c0,1-.07,2.68-.19,5.08s-.2,3.67-.2,3.82V41.43l.39,10.19v1.57H26.07Z"></path></g></g></g><g id="Group_2767" data-name="Group 2767"><path id="Path_5257" data-name="Path 5257" class="cls-3" d="M228.13,31.16h5.15l-.65,4.14a6.66,6.66,0,0,1-.31,1.32,2.1,2.1,0,0,1-.61.91,2.66,2.66,0,0,1-1.11.53,8.41,8.41,0,0,1-1.81.17,9.62,9.62,0,0,1-3-.38A4.39,4.39,0,0,1,224,36.76,4,4,0,0,1,223,35a9.59,9.59,0,0,1-.27-2.27,20.53,20.53,0,0,1,.18-2.48c.12-.88.25-1.82.4-2.82s.34-2,.53-2.95a19.45,19.45,0,0,1,.67-2.6,9.83,9.83,0,0,1,1-2.15A6.06,6.06,0,0,1,227,18.12a7,7,0,0,1,2.19-1,11.07,11.07,0,0,1,3-.36c1.51,0,3,0,4.54.14s3,.25,4.46.47l.93-6.34a32.36,32.36,0,0,0-4.5-.68c-1.77-.17-3.63-.25-5.57-.25a25.1,25.1,0,0,0-5,.44,13.72,13.72,0,0,0-3.89,1.35,10.94,10.94,0,0,0-3,2.32,14,14,0,0,0-2.2,3.34,24.62,24.62,0,0,0-1.57,4.41c-.43,1.66-.81,3.5-1.13,5.54-.21,1.31-.37,2.53-.48,3.67v.06h-2.76l2.47-15.68a6.2,6.2,0,0,0,.09-1,4.11,4.11,0,0,0-.24-1.48,2.86,2.86,0,0,0-.67-1.05,2.78,2.78,0,0,0-1-.63,4,4,0,0,0-1.28-.21,8.9,8.9,0,0,0-1.46.12,5.29,5.29,0,0,0-1.4.49,8.4,8.4,0,0,0-1.48,1,18.42,18.42,0,0,0-1.73,1.69L193.09,27.85a23.94,23.94,0,0,0-1.72,2,11.4,11.4,0,0,0-1,1.51,5.74,5.74,0,0,0-.46,1.12,8.58,8.58,0,0,0-.18.85,7.63,7.63,0,0,0-.09,1,3.53,3.53,0,0,0,.22,1.24,2.29,2.29,0,0,0,.72.94,3.72,3.72,0,0,0,1.31.6,8.34,8.34,0,0,0,2,.21h9.92l-1.15,7.21h7.37l1.14-7.21H215a13.29,13.29,0,0,0,.37,1.75,7.36,7.36,0,0,0,2,3.28,8.78,8.78,0,0,0,3.66,1.92,21.2,21.2,0,0,0,5.55.62c1.12,0,2.19,0,3.2-.06a21.16,21.16,0,0,0,2.86-.29,11.07,11.07,0,0,0,2.44-.68,6.43,6.43,0,0,0,2-1.24,6.67,6.67,0,0,0,1.44-2,10.15,10.15,0,0,0,.85-2.86l2-12.78H229.14Zm-23.33,0h-7.24l8.82-10Z"></path></g></g></g></g></svg>